<svg xmlns="http://www.w3.org/2000/svg" width="1536" height="864" viewBox="0 0 1536 864">
    
    <defs>
      <radialGradient id="nebula" cx="50%" cy="38%" r="75%">
        <stop offset="0%" stop-color="#ff8ccb" stop-opacity=".34"/>
        <stop offset="38%" stop-color="#172247" stop-opacity=".88"/>
        <stop offset="100%" stop-color="#0a1230"/>
      </radialGradient>
      <linearGradient id="horizon" x1="0" x2="1" y1="0" y2="1">
        <stop offset="0%" stop-color="#64f2ff" stop-opacity=".88"/>
        <stop offset="52%" stop-color="#ff8ccb" stop-opacity=".75"/>
        <stop offset="100%" stop-color="#ffd36b" stop-opacity=".72"/>
      </linearGradient>
      <filter id="glow" x="-80%" y="-80%" width="260%" height="260%">
        <feGaussianBlur stdDeviation="10" result="blur"/>
        <feMerge><feMergeNode in="blur"/><feMergeNode in="SourceGraphic"/></feMerge>
      </filter>
      <pattern id="grid" width="42" height="42" patternUnits="userSpaceOnUse">
        <path d="M 42 0 H 0 V 42" fill="none" stroke="#ffffff" stroke-width="1" opacity=".08"/>
      </pattern>
    </defs>
    <rect width="1536" height="864" fill="url(#nebula)"/>
    <rect width="1536" height="864" fill="url(#grid)" opacity=".55"/>
    <g><circle cx="140" cy="695" r="2.37" fill="#f7fbff" opacity="0.79"/>
<circle cx="772" cy="152" r="1.09" fill="#f7fbff" opacity="0.33"/>
<circle cx="109" cy="286" r="3.22" fill="#f7fbff" opacity="0.25"/>
<circle cx="1049" cy="622" r="2.09" fill="#f7fbff" opacity="0.23"/>
<circle cx="763" cy="302" r="2.23" fill="#f7fbff" opacity="0.61"/>
<circle cx="1317" cy="467" r="1.33" fill="#f7fbff" opacity="0.79"/>
<circle cx="917" cy="92" r="1.94" fill="#f7fbff" opacity="0.32"/>
<circle cx="829" cy="337" r="1.86" fill="#f7fbff" opacity="0.33"/>
<circle cx="560" cy="738" r="2.12" fill="#f7fbff" opacity="0.69"/>
<circle cx="802" cy="688" r="2.56" fill="#f7fbff" opacity="0.25"/>
<circle cx="28" cy="407" r="1.88" fill="#f7fbff" opacity="0.23"/>
<circle cx="1325" cy="385" r="3.21" fill="#f7fbff" opacity="0.45"/>
<circle cx="657" cy="35" r="1.36" fill="#f7fbff" opacity="0.33"/>
<circle cx="795" cy="163" r="2.56" fill="#f7fbff" opacity="0.56"/>
<circle cx="313" cy="444" r="1.62" fill="#f7fbff" opacity="0.72"/>
<circle cx="325" cy="431" r="2.82" fill="#f7fbff" opacity="0.51"/>
<circle cx="1371" cy="59" r="2.51" fill="#f7fbff" opacity="0.40"/>
<circle cx="836" cy="860" r="2.14" fill="#f7fbff" opacity="0.85"/>
<circle cx="162" cy="603" r="0.82" fill="#f7fbff" opacity="0.37"/>
<circle cx="303" cy="755" r="1.66" fill="#f7fbff" opacity="0.33"/>
<circle cx="1024" cy="413" r="2.48" fill="#f7fbff" opacity="0.78"/>
<circle cx="816" cy="43" r="1.48" fill="#f7fbff" opacity="0.86"/>
<circle cx="1047" cy="666" r="0.87" fill="#f7fbff" opacity="0.30"/>
<circle cx="1405" cy="541" r="1.10" fill="#f7fbff" opacity="0.35"/>
<circle cx="1155" cy="89" r="2.78" fill="#f7fbff" opacity="0.42"/>
<circle cx="1301" cy="624" r="3.09" fill="#f7fbff" opacity="0.91"/>
<circle cx="655" cy="110" r="1.57" fill="#f7fbff" opacity="0.40"/>
<circle cx="110" cy="487" r="2.63" fill="#f7fbff" opacity="0.94"/>
<circle cx="1419" cy="746" r="2.57" fill="#f7fbff" opacity="0.48"/>
<circle cx="558" cy="372" r="1.74" fill="#f7fbff" opacity="0.88"/>
<circle cx="763" cy="585" r="0.98" fill="#f7fbff" opacity="0.70"/>
<circle cx="517" cy="142" r="1.36" fill="#f7fbff" opacity="0.69"/>
<circle cx="1030" cy="196" r="1.70" fill="#f7fbff" opacity="0.34"/>
<circle cx="277" cy="337" r="1.78" fill="#f7fbff" opacity="0.93"/>
<circle cx="868" cy="708" r="0.97" fill="#f7fbff" opacity="0.56"/>
<circle cx="932" cy="529" r="0.78" fill="#f7fbff" opacity="0.66"/>
<circle cx="225" cy="135" r="0.80" fill="#f7fbff" opacity="0.54"/>
<circle cx="734" cy="825" r="3.23" fill="#f7fbff" opacity="0.52"/>
<circle cx="362" cy="723" r="1.27" fill="#f7fbff" opacity="0.45"/>
<circle cx="1127" cy="821" r="2.24" fill="#f7fbff" opacity="0.87"/>
<circle cx="201" cy="41" r="2.07" fill="#f7fbff" opacity="0.88"/>
<circle cx="286" cy="850" r="1.18" fill="#f7fbff" opacity="0.58"/>
<circle cx="241" cy="439" r="1.16" fill="#f7fbff" opacity="0.75"/>
<circle cx="1063" cy="562" r="2.80" fill="#f7fbff" opacity="0.32"/>
<circle cx="1123" cy="136" r="1.09" fill="#f7fbff" opacity="0.73"/>
<circle cx="593" cy="317" r="2.03" fill="#f7fbff" opacity="0.44"/>
<circle cx="681" cy="841" r="0.75" fill="#f7fbff" opacity="0.78"/>
<circle cx="416" cy="742" r="1.99" fill="#f7fbff" opacity="0.56"/>
<circle cx="370" cy="737" r="1.14" fill="#f7fbff" opacity="0.81"/>
<circle cx="910" cy="834" r="2.20" fill="#f7fbff" opacity="0.84"/>
<circle cx="861" cy="676" r="3.27" fill="#f7fbff" opacity="0.32"/>
<circle cx="417" cy="581" r="0.81" fill="#f7fbff" opacity="0.27"/>
<circle cx="724" cy="521" r="2.54" fill="#f7fbff" opacity="0.61"/>
<circle cx="1109" cy="416" r="1.58" fill="#f7fbff" opacity="0.80"/>
<circle cx="1120" cy="809" r="1.06" fill="#f7fbff" opacity="0.94"/>
<circle cx="1156" cy="798" r="1.63" fill="#f7fbff" opacity="0.61"/>
<circle cx="1176" cy="574" r="3.07" fill="#f7fbff" opacity="0.53"/>
<circle cx="202" cy="647" r="3.11" fill="#f7fbff" opacity="0.62"/>
<circle cx="1166" cy="545" r="2.47" fill="#f7fbff" opacity="0.42"/>
<circle cx="1443" cy="322" r="1.17" fill="#f7fbff" opacity="0.66"/>
<circle cx="1444" cy="384" r="1.71" fill="#f7fbff" opacity="0.57"/>
<circle cx="1487" cy="454" r="1.85" fill="#f7fbff" opacity="0.78"/>
<circle cx="984" cy="480" r="2.65" fill="#f7fbff" opacity="0.36"/>
<circle cx="979" cy="772" r="2.46" fill="#f7fbff" opacity="0.80"/>
<circle cx="1052" cy="829" r="1.91" fill="#f7fbff" opacity="0.77"/>
<circle cx="796" cy="761" r="1.52" fill="#f7fbff" opacity="0.52"/>
<circle cx="694" cy="700" r="2.77" fill="#f7fbff" opacity="0.61"/>
<circle cx="1141" cy="48" r="2.38" fill="#f7fbff" opacity="0.61"/>
<circle cx="215" cy="126" r="1.33" fill="#f7fbff" opacity="0.70"/>
<circle cx="690" cy="211" r="1.04" fill="#f7fbff" opacity="0.57"/>
<circle cx="265" cy="852" r="0.82" fill="#f7fbff" opacity="0.82"/>
<circle cx="1520" cy="201" r="0.80" fill="#f7fbff" opacity="0.94"/>
<circle cx="617" cy="793" r="2.76" fill="#f7fbff" opacity="0.45"/>
<circle cx="661" cy="458" r="0.85" fill="#f7fbff" opacity="0.24"/>
<circle cx="603" cy="70" r="3.08" fill="#f7fbff" opacity="0.80"/>
<circle cx="117" cy="607" r="3.18" fill="#f7fbff" opacity="0.57"/>
<circle cx="451" cy="80" r="0.71" fill="#f7fbff" opacity="0.64"/>
<circle cx="770" cy="793" r="1.90" fill="#f7fbff" opacity="0.93"/>
<circle cx="902" cy="654" r="1.29" fill="#f7fbff" opacity="0.69"/>
<circle cx="435" cy="622" r="1.35" fill="#f7fbff" opacity="0.43"/>
<circle cx="561" cy="149" r="3.24" fill="#f7fbff" opacity="0.41"/>
<circle cx="679" cy="596" r="2.20" fill="#f7fbff" opacity="0.28"/>
<circle cx="216" cy="427" r="1.88" fill="#f7fbff" opacity="0.36"/>
<circle cx="1342" cy="18" r="3.25" fill="#f7fbff" opacity="0.35"/>
<circle cx="1150" cy="625" r="3.03" fill="#f7fbff" opacity="0.71"/>
<circle cx="606" cy="393" r="2.60" fill="#f7fbff" opacity="0.33"/>
<circle cx="601" cy="486" r="2.37" fill="#f7fbff" opacity="0.33"/>
<circle cx="1163" cy="741" r="1.04" fill="#f7fbff" opacity="0.33"/>
<circle cx="299" cy="465" r="1.66" fill="#f7fbff" opacity="0.62"/>
<circle cx="653" cy="548" r="2.15" fill="#f7fbff" opacity="0.60"/>
<circle cx="265" cy="219" r="1.52" fill="#f7fbff" opacity="0.58"/>
<circle cx="17" cy="644" r="2.61" fill="#f7fbff" opacity="0.44"/>
<circle cx="545" cy="166" r="0.99" fill="#f7fbff" opacity="0.79"/>
<circle cx="1138" cy="574" r="1.95" fill="#f7fbff" opacity="0.42"/>
<circle cx="666" cy="336" r="1.16" fill="#f7fbff" opacity="0.30"/></g>
    <circle cx="1220" cy="144" r="160" fill="#64f2ff" opacity=".11" filter="url(#glow)"/>
    <circle cx="220" cy="712" r="220" fill="#ff8ccb" opacity=".10" filter="url(#glow)"/>
  
    <g>
      
    <ellipse cx="768" cy="424" rx="410" ry="146" fill="none" stroke="#64f2ff" stroke-width="3" opacity=".42"/>
    <ellipse cx="768" cy="424" rx="300" ry="104" fill="none" stroke="#ffffff" stroke-width="2" opacity=".16"/>
    <ellipse cx="768" cy="424" rx="512" ry="190" fill="none" stroke="#64f2ff" stroke-width="2" opacity=".24"/>
      <g filter="url(#glow)">
        <circle cx="768" cy="424" r="210" fill="rgba(255,255,255,.035)" stroke="#64f2ff" stroke-width="5"/>
        <path d="M 560 426 C 660 352 770 346 982 390 M 580 500 C 712 560 850 548 972 480" fill="none" stroke="#ff8ccb" stroke-width="6"/>
        <path d="M 320 610 H 650 C 756 610 804 548 888 500 C 984 444 1098 436 1228 458" fill="none" stroke="url(#horizon)" stroke-width="8" opacity=".72"/>
      </g>
      
    <g>
      <rect x="192" y="250" width="286" height="158" rx="28" fill="rgba(255,255,255,0.055)" stroke="#64f2ff" stroke-width="3"/>
      <rect x="212" y="272" width="246" height="8" rx="4" fill="#64f2ff" opacity=".5"/>
      <rect x="212" y="298" width="200" height="6" rx="3" fill="#ffffff" opacity=".24"/>
      <rect x="212" y="320" width="228" height="6" rx="3" fill="#ffffff" opacity=".18"/>
    </g>
      
    <g>
      <rect x="1036" y="540" width="286" height="158" rx="28" fill="rgba(255,255,255,0.055)" stroke="#ff8ccb" stroke-width="3"/>
      <rect x="1056" y="562" width="246" height="8" rx="4" fill="#ff8ccb" opacity=".5"/>
      <rect x="1056" y="588" width="200" height="6" rx="3" fill="#ffffff" opacity=".24"/>
      <rect x="1056" y="610" width="228" height="6" rx="3" fill="#ffffff" opacity=".18"/>
    </g>
      
    <g transform="translate(768 686) scale(0.72)" opacity="0.9">
      <rect x="-62" y="-80" width="124" height="108" rx="34" fill="rgba(223,248,255,0.12)" stroke="#edfaff" stroke-width="4"/>
      <rect x="-42" y="-42" width="84" height="34" rx="17" fill="rgba(8,18,44,0.85)" stroke="#ffd36b" stroke-width="3"/>
      <circle cx="-21" cy="-25" r="6" fill="#ffd36b"/>
      <circle cx="21" cy="-25" r="6" fill="#ffd36b"/>
      <path d="M -22 5 Q 0 20 22 5" fill="none" stroke="#edfaff" stroke-width="4" stroke-linecap="round"/>
      <path d="M 0 -80 V -115" stroke="#ffd36b" stroke-width="4" stroke-linecap="round"/>
      <circle cx="0" cy="-122" r="9" fill="#ffd36b"/>
      <path d="M -46 28 C -74 62 -80 102 -72 150 M 46 28 C 74 62 80 102 72 150" fill="none" stroke="#edfaff" stroke-width="5" stroke-linecap="round"/>
    </g>
    </g>
    <rect x="48" y="48" width="1440" height="768" rx="44" fill="none" stroke="#ffffff" stroke-width="2" opacity=".12"/>
    <rect x="0" y="0" width="1536" height="864" fill="url(#horizon)" opacity=".08"/>
  </svg>