<svg xmlns="http://www.w3.org/2000/svg" width="1536" height="864" viewBox="0 0 1536 864">
    
    <defs>
      <radialGradient id="nebula" cx="50%" cy="38%" r="75%">
        <stop offset="0%" stop-color="#65f3ff" stop-opacity=".34"/>
        <stop offset="38%" stop-color="#12264b" stop-opacity=".88"/>
        <stop offset="100%" stop-color="#130b2a"/>
      </radialGradient>
      <linearGradient id="horizon" x1="0" x2="1" y1="0" y2="1">
        <stop offset="0%" stop-color="#ff71b8" stop-opacity=".88"/>
        <stop offset="52%" stop-color="#65f3ff" stop-opacity=".75"/>
        <stop offset="100%" stop-color="#f6c55d" stop-opacity=".72"/>
      </linearGradient>
      <filter id="glow" x="-80%" y="-80%" width="260%" height="260%">
        <feGaussianBlur stdDeviation="10" result="blur"/>
        <feMerge><feMergeNode in="blur"/><feMergeNode in="SourceGraphic"/></feMerge>
      </filter>
      <pattern id="grid" width="42" height="42" patternUnits="userSpaceOnUse">
        <path d="M 42 0 H 0 V 42" fill="none" stroke="#ffffff" stroke-width="1" opacity=".08"/>
      </pattern>
    </defs>
    <rect width="1536" height="864" fill="url(#nebula)"/>
    <rect width="1536" height="864" fill="url(#grid)" opacity=".55"/>
    <g><circle cx="931" cy="523" r="2.79" fill="#f7fbff" opacity="0.79"/>
<circle cx="1164" cy="693" r="0.89" fill="#f7fbff" opacity="0.89"/>
<circle cx="1299" cy="740" r="1.78" fill="#f7fbff" opacity="0.49"/>
<circle cx="763" cy="709" r="3.24" fill="#f7fbff" opacity="0.68"/>
<circle cx="96" cy="115" r="1.57" fill="#f7fbff" opacity="0.35"/>
<circle cx="333" cy="609" r="2.93" fill="#f7fbff" opacity="0.56"/>
<circle cx="448" cy="599" r="2.94" fill="#f7fbff" opacity="0.82"/>
<circle cx="1292" cy="114" r="1.46" fill="#f7fbff" opacity="0.64"/>
<circle cx="400" cy="546" r="2.85" fill="#f7fbff" opacity="0.51"/>
<circle cx="1089" cy="677" r="1.39" fill="#f7fbff" opacity="0.35"/>
<circle cx="1335" cy="503" r="1.28" fill="#f7fbff" opacity="0.75"/>
<circle cx="826" cy="97" r="1.76" fill="#f7fbff" opacity="0.40"/>
<circle cx="981" cy="794" r="2.61" fill="#f7fbff" opacity="0.30"/>
<circle cx="135" cy="658" r="2.73" fill="#f7fbff" opacity="0.54"/>
<circle cx="801" cy="56" r="2.24" fill="#f7fbff" opacity="0.86"/>
<circle cx="43" cy="532" r="0.78" fill="#f7fbff" opacity="0.52"/>
<circle cx="1232" cy="18" r="2.17" fill="#f7fbff" opacity="0.76"/>
<circle cx="38" cy="273" r="1.92" fill="#f7fbff" opacity="0.65"/>
<circle cx="224" cy="570" r="1.79" fill="#f7fbff" opacity="0.35"/>
<circle cx="1355" cy="134" r="1.17" fill="#f7fbff" opacity="0.22"/>
<circle cx="385" cy="627" r="2.30" fill="#f7fbff" opacity="0.64"/>
<circle cx="718" cy="360" r="2.74" fill="#f7fbff" opacity="0.92"/>
<circle cx="966" cy="88" r="2.95" fill="#f7fbff" opacity="0.71"/>
<circle cx="415" cy="841" r="2.31" fill="#f7fbff" opacity="0.74"/>
<circle cx="439" cy="583" r="0.74" fill="#f7fbff" opacity="0.55"/>
<circle cx="1184" cy="636" r="1.75" fill="#f7fbff" opacity="0.33"/>
<circle cx="1233" cy="490" r="2.68" fill="#f7fbff" opacity="0.61"/>
<circle cx="676" cy="860" r="2.21" fill="#f7fbff" opacity="0.46"/>
<circle cx="344" cy="725" r="1.83" fill="#f7fbff" opacity="0.78"/>
<circle cx="294" cy="852" r="1.08" fill="#f7fbff" opacity="0.89"/>
<circle cx="403" cy="461" r="1.18" fill="#f7fbff" opacity="0.43"/>
<circle cx="1103" cy="107" r="0.84" fill="#f7fbff" opacity="0.84"/>
<circle cx="424" cy="28" r="2.64" fill="#f7fbff" opacity="0.30"/>
<circle cx="365" cy="218" r="2.51" fill="#f7fbff" opacity="0.64"/>
<circle cx="87" cy="770" r="1.72" fill="#f7fbff" opacity="0.82"/>
<circle cx="491" cy="10" r="3.11" fill="#f7fbff" opacity="0.48"/>
<circle cx="1313" cy="202" r="1.32" fill="#f7fbff" opacity="0.75"/>
<circle cx="4" cy="611" r="3.01" fill="#f7fbff" opacity="0.45"/>
<circle cx="1027" cy="358" r="3.13" fill="#f7fbff" opacity="0.53"/>
<circle cx="871" cy="456" r="2.11" fill="#f7fbff" opacity="0.40"/>
<circle cx="1287" cy="261" r="2.61" fill="#f7fbff" opacity="0.25"/>
<circle cx="1026" cy="821" r="1.72" fill="#f7fbff" opacity="0.23"/>
<circle cx="671" cy="244" r="3.21" fill="#f7fbff" opacity="0.77"/>
<circle cx="9" cy="481" r="2.73" fill="#f7fbff" opacity="0.56"/>
<circle cx="1508" cy="842" r="1.43" fill="#f7fbff" opacity="0.54"/>
<circle cx="1281" cy="537" r="2.97" fill="#f7fbff" opacity="0.81"/>
<circle cx="1054" cy="434" r="1.89" fill="#f7fbff" opacity="0.48"/>
<circle cx="1471" cy="273" r="3.10" fill="#f7fbff" opacity="0.71"/>
<circle cx="1489" cy="514" r="2.85" fill="#f7fbff" opacity="0.31"/>
<circle cx="953" cy="527" r="1.92" fill="#f7fbff" opacity="0.88"/>
<circle cx="624" cy="507" r="2.69" fill="#f7fbff" opacity="0.52"/>
<circle cx="558" cy="274" r="2.78" fill="#f7fbff" opacity="0.40"/>
<circle cx="421" cy="678" r="2.96" fill="#f7fbff" opacity="0.85"/>
<circle cx="137" cy="310" r="2.83" fill="#f7fbff" opacity="0.70"/>
<circle cx="642" cy="255" r="3.11" fill="#f7fbff" opacity="0.58"/>
<circle cx="504" cy="387" r="1.69" fill="#f7fbff" opacity="0.76"/>
<circle cx="1483" cy="536" r="2.58" fill="#f7fbff" opacity="0.36"/>
<circle cx="371" cy="19" r="2.57" fill="#f7fbff" opacity="0.52"/>
<circle cx="561" cy="408" r="1.79" fill="#f7fbff" opacity="0.59"/>
<circle cx="1523" cy="174" r="1.03" fill="#f7fbff" opacity="0.54"/>
<circle cx="1142" cy="164" r="0.86" fill="#f7fbff" opacity="0.74"/>
<circle cx="908" cy="745" r="1.84" fill="#f7fbff" opacity="0.48"/>
<circle cx="159" cy="654" r="2.77" fill="#f7fbff" opacity="0.52"/>
<circle cx="1119" cy="848" r="2.02" fill="#f7fbff" opacity="0.85"/>
<circle cx="920" cy="797" r="3.12" fill="#f7fbff" opacity="0.78"/>
<circle cx="1125" cy="681" r="2.95" fill="#f7fbff" opacity="0.39"/>
<circle cx="1151" cy="161" r="1.24" fill="#f7fbff" opacity="0.78"/>
<circle cx="1337" cy="569" r="0.88" fill="#f7fbff" opacity="0.73"/>
<circle cx="1432" cy="516" r="3.13" fill="#f7fbff" opacity="0.43"/>
<circle cx="1431" cy="125" r="1.98" fill="#f7fbff" opacity="0.48"/>
<circle cx="999" cy="801" r="2.14" fill="#f7fbff" opacity="0.66"/>
<circle cx="863" cy="826" r="2.79" fill="#f7fbff" opacity="0.67"/>
<circle cx="847" cy="159" r="0.71" fill="#f7fbff" opacity="0.66"/>
<circle cx="961" cy="17" r="1.50" fill="#f7fbff" opacity="0.66"/>
<circle cx="1248" cy="775" r="2.62" fill="#f7fbff" opacity="0.80"/>
<circle cx="579" cy="33" r="2.33" fill="#f7fbff" opacity="0.56"/>
<circle cx="613" cy="547" r="2.11" fill="#f7fbff" opacity="0.80"/>
<circle cx="1049" cy="383" r="1.24" fill="#f7fbff" opacity="0.49"/>
<circle cx="71" cy="660" r="0.88" fill="#f7fbff" opacity="0.66"/>
<circle cx="773" cy="211" r="3.14" fill="#f7fbff" opacity="0.44"/>
<circle cx="743" cy="32" r="1.17" fill="#f7fbff" opacity="0.58"/>
<circle cx="500" cy="707" r="1.58" fill="#f7fbff" opacity="0.53"/>
<circle cx="710" cy="762" r="0.98" fill="#f7fbff" opacity="0.42"/>
<circle cx="847" cy="322" r="1.46" fill="#f7fbff" opacity="0.68"/>
<circle cx="1109" cy="544" r="3.19" fill="#f7fbff" opacity="0.87"/>
<circle cx="1167" cy="727" r="2.71" fill="#f7fbff" opacity="0.74"/>
<circle cx="869" cy="425" r="2.81" fill="#f7fbff" opacity="0.43"/>
<circle cx="1308" cy="244" r="1.39" fill="#f7fbff" opacity="0.43"/>
<circle cx="1163" cy="796" r="2.90" fill="#f7fbff" opacity="0.91"/>
<circle cx="1344" cy="344" r="1.40" fill="#f7fbff" opacity="0.33"/>
<circle cx="248" cy="33" r="2.36" fill="#f7fbff" opacity="0.54"/>
<circle cx="860" cy="395" r="2.23" fill="#f7fbff" opacity="0.31"/>
<circle cx="523" cy="145" r="0.86" fill="#f7fbff" opacity="0.31"/>
<circle cx="422" cy="223" r="1.20" fill="#f7fbff" opacity="0.89"/>
<circle cx="897" cy="151" r="1.18" fill="#f7fbff" opacity="0.35"/></g>
    <circle cx="1220" cy="144" r="160" fill="#ff71b8" opacity=".11" filter="url(#glow)"/>
    <circle cx="220" cy="712" r="220" fill="#65f3ff" opacity=".10" filter="url(#glow)"/>
  
    <g>
      <polyline points="0,544.8 24,546.2 48,541.2 72,530.5 96,517.1 120,504.7 144,496.1 168,492.5 192,492.8 216,494.8 240,496.2 264,496.3 288,496.0 312,497.3 336,502.4 360,511.9 384,524.3 408,536.6 432,545.1 456,547.5 480,543.3 504,534.4 528,524.1 552,515.3 576,509.6 600,506.5 624,504.3 648,501.0 672,496.0 696,490.1 720,485.8 744,486.0 768,492.1 792,503.4 816,517.4 840,530.3 864,538.9 888,541.6 912,539.4 936,534.5 960,529.6 984,526.3 1008,524.3 1032,522.0 1056,517.3 1080,509.3 1104,498.7 1128,488.3 1152,481.5 1176,480.7 1200,486.5 1224,497.3 1248,509.7 1272,520.4 1296,527.2 1320,530.0 1344,530.5 1368,531.0 1392,532.7 1416,535.4 1440,537.2 1464,535.7 1488,529.1 1512,517.9 1536,504.2" fill="none" stroke="#ff71b8" stroke-width="5" stroke-linecap="round" opacity="0.72"/>
      <polyline points="0,584.1 24,578.5 48,567.7 72,554.0 96,541.0 120,532.0 144,529.2 168,532.2 192,538.8 216,546.2 240,551.9 264,555.5 288,558.2 312,561.8 336,568.0 360,576.5 384,585.3 408,591.4 432,592.1 456,586.2 480,574.9 504,561.5 528,549.5 552,541.7 576,538.7 600,539.3 624,541.2 648,542.2 672,542.0 696,541.6 720,543.3 744,549.1 768,559.2 792,571.9 816,583.9 840,591.8 864,593.2 888,588.3 912,579.1 936,569.0 960,560.7 984,555.5 1008,552.7 1032,550.3 1056,546.7 1080,541.2 1104,535.2 1128,531.3 1152,532.2 1176,539.1 1200,551.1 1224,565.1 1248,577.5 1272,585.3 1296,587.3 1320,584.6 1344,579.7 1368,575.2 1392,572.3 1416,570.5 1440,568.0 1464,562.8 1488,554.2 1512,543.3 1536,533.1" fill="none" stroke="#65f3ff" stroke-width="5" stroke-linecap="round" opacity="0.42"/>
      
    <g transform="translate(376 580) scale(0.95)" opacity="0.9">
      <rect x="-62" y="-80" width="124" height="108" rx="34" fill="rgba(223,248,255,0.12)" stroke="#fff3fb" stroke-width="4"/>
      <rect x="-42" y="-42" width="84" height="34" rx="17" fill="rgba(8,18,44,0.85)" stroke="#65f3ff" stroke-width="3"/>
      <circle cx="-21" cy="-25" r="6" fill="#65f3ff"/>
      <circle cx="21" cy="-25" r="6" fill="#65f3ff"/>
      <path d="M -22 5 Q 0 20 22 5" fill="none" stroke="#fff3fb" stroke-width="4" stroke-linecap="round"/>
      <path d="M 0 -80 V -115" stroke="#65f3ff" stroke-width="4" stroke-linecap="round"/>
      <circle cx="0" cy="-122" r="9" fill="#65f3ff"/>
      <path d="M -46 28 C -74 62 -80 102 -72 150 M 46 28 C 74 62 80 102 72 150" fill="none" stroke="#fff3fb" stroke-width="5" stroke-linecap="round"/>
    </g>
      <g filter="url(#glow)">
        <circle cx="870" cy="388" r="142" fill="none" stroke="#ff71b8" stroke-width="6" opacity=".62"/>
        <path d="M 760 388 C 800 308 858 494 910 364 S 1000 382 1038 314" fill="none" stroke="#65f3ff" stroke-width="7"/>
        <circle cx="760" cy="388" r="10" fill="#f6c55d"/><circle cx="910" cy="364" r="10" fill="#f6c55d"/><circle cx="1038" cy="314" r="10" fill="#f6c55d"/>
      </g>
      
    <g>
      <rect x="1034" y="508" width="260" height="150" rx="28" fill="rgba(255,255,255,.045)" stroke="#65f3ff" stroke-width="3"/>
      <rect x="1054" y="530" width="220" height="8" rx="4" fill="#65f3ff" opacity=".5"/>
      <rect x="1054" y="556" width="174" height="6" rx="3" fill="#ffffff" opacity=".24"/>
      <rect x="1054" y="578" width="202" height="6" rx="3" fill="#ffffff" opacity=".18"/>
    </g>
      
    <ellipse cx="870" cy="388" rx="410" ry="146" fill="none" stroke="#ff71b8" stroke-width="3" opacity=".42"/>
    <ellipse cx="870" cy="388" rx="300" ry="104" fill="none" stroke="#ffffff" stroke-width="2" opacity=".16"/>
    <ellipse cx="870" cy="388" rx="512" ry="190" fill="none" stroke="#ff71b8" stroke-width="2" opacity=".24"/>
    </g>
    <rect x="48" y="48" width="1440" height="768" rx="44" fill="none" stroke="#ffffff" stroke-width="2" opacity=".12"/>
    <rect x="0" y="0" width="1536" height="864" fill="url(#horizon)" opacity=".08"/>
  </svg>